<svg width="53" height="83" viewBox="0 0 53 83" fill="none" xmlns="http://www.w3.org/2000/svg">
<path d="M52.4 11.25C52.4 5.05 47.36 0 41.15 0C35.75 0 31.22 3.83 30.14 8.92C28.71 8.61 27.22 8.44 25.68 8.44H22.87C18.12 8.44 13.74 10.02 10.21 12.66H33.55C33.46 12.21 33.42 11.73 33.42 11.25C33.42 6.98 36.89 3.52 41.15 3.52C45.41 3.52 48.88 6.98 48.88 11.25C48.88 15.51 45.41 18.98 41.15 18.98C39.11 18.98 37.24 18.18 35.86 16.88H20.93H6C3.35 20.41 1.78 24.79 1.78 29.54C1.78 34.97 6.19 39.38 11.62 39.38H36.93C39.65 39.38 42.11 38.28 43.89 36.5C45.67 34.71 46.78 32.25 46.78 29.54C46.78 26.77 46.24 24.13 45.27 21.71C49.44 20.07 52.4 16 52.4 11.25ZM38.34 26.02C38.34 27.96 36.76 29.54 34.82 29.54H13.73C11.79 29.54 10.22 27.96 10.22 26.02V22.51C10.22 20.56 11.79 18.99 13.73 18.99H33C34.43 20.49 36.26 21.6 38.32 22.14C38.33 22.26 38.34 22.38 38.34 22.51V26.02ZM31.19 40.19H17.37C10.12 40.19 4.77 46.94 6.41 53.99L10.47 71.42C11.22 74.63 13.02 77.37 15.47 79.31C17.91 81.24 20.98 82.38 24.28 82.38C30.86 82.38 36.58 77.84 38.08 71.42L42.14 53.99C43.79 46.94 38.43 40.19 31.19 40.19ZM30.95 57.01H26.39V61.57H22.17V57.01H17.6V52.79H22.17V48.22H26.39V52.79H30.95V57.01Z" fill="black"/>
<path d="M35.5 11.3878C35.5 8.35225 37.9566 5.87999 40.9922 5.87999C44.0277 5.87999 46.5 8.35225 46.5 11.3878C46.5 14.4234 44.0277 16.88 40.9922 16.88C37.9566 16.88 35.5 14.4234 35.5 11.3878Z" fill="#4F46E5"/>
<path d="M43.54 46.88C44.39 49.34 44.54 52.01 43.93 54.63L41.5 65.04V69.28C45.73 67 48.6 62.54 48.6 57.4C48.6 53.14 46.62 49.35 43.54 46.88Z" fill="#4F46E5"/>
<path d="M5.06 46.88C4.21 49.34 4.06 52.01 4.67 54.63L7.1 65.04V69.28C2.87 67 0 62.54 0 57.4C0 53.14 1.98 49.35 5.06 46.88Z" fill="#4F46E5"/>
<path d="M15.5 25.88L18.5 22.88L21.5 25.88" stroke="#4F46E5" stroke-width="2" stroke-linecap="round"/>
<path d="M27.5 25.88L30.5 22.88L33.5 25.88" stroke="#4F46E5" stroke-width="2" stroke-linecap="round"/>
</svg>
